<?xml version="1.0" encoding="UTF-8" standalone="no"?>
<svg width="100%" height="100%" viewBox="2.200 0.050 52.350 49.250" version="1.1" xmlns="http://www.w3.org/2000/svg" style="fill-rule:evenodd;clip-rule:evenodd;stroke-linejoin:round;stroke-miterlimit:2;">
    <g transform="matrix(1,0,0,1,-8177.44,-3313)">
        <g id="cpanel" transform="matrix(0.0306574,0,0,0.0394801,7927.22,3182.16)">
            <g transform="matrix(0.00419542,3.38566,4.36,-0.00325786,9260.64,3765.35)">
                <path d="M-129.333,-231.355L135.671,-231.355L231.578,-129.457L-79.8,-129.157L-129.333,-231.355Z" style="fill:rgb(20,71,129);fill-rule:nonzero;"/>
            </g>
<g transform="matrix(4.36,0,0,3.38566,8251.39,3890.71)">
                <path d="M0,-166.137L102.245,-116.703L102.245,0L0,-166.137Z" style="fill:rgb(21,31,53);fill-rule:nonzero;"/>
            </g>
<g transform="matrix(0,3.38566,4.36,0,9455.08,3781.41)">
                <path d="M-84.42,-173.831L32.284,-173.831L173.831,-84.419L26.041,-84.419L-84.42,-173.831Z" style="fill:rgb(91,133,161);fill-rule:nonzero;"/>
            </g>
<g transform="matrix(0,3.38566,4.36,0,9303.44,3740.77)">
                <path d="M38.045,-49.638L185.835,-49.638L79.197,38.045L-98.152,38.045L38.045,-49.638Z" style="fill:rgb(20,71,129);fill-rule:nonzero;"/>
            </g>
<g transform="matrix(4.36,0,0,3.38566,9469.31,4008.9)">
                <path d="M0,-177.348L104.472,-177.348L104.472,-121.29L0,0L0,-177.348Z" style="fill:rgb(21,31,53);fill-rule:nonzero;"/>
            </g>
<g transform="matrix(2.84543,-2.56526,-3.3035,-2.20956,9615.98,4118.85)">
                <path d="M2.652,46.682L162.732,46.682L97.283,-9.693L-58.26,-5.785L2.652,46.682Z" style="fill:rgb(91,133,161);fill-rule:nonzero;"/>
            </g>
        </g>
    </g>
</svg>
